<svg width="1105" height="145" viewBox="0 0 1105 145" fill="none" xmlns="http://www.w3.org/2000/svg">
<g clip-path="url(#clip0_137_24)">
<g style="mix-blend-mode:multiply">
<path d="M72.27 27.1H144.54V0H72.27C32.35 0 0 32.35 0 72.27C0 112.19 32.35 144.54 72.27 144.54C107.19 144.54 136.33 119.77 143.07 86.84C143.14 86.5 143.2 86.16 143.26 85.83C144.09 81.46 144.53 76.88 144.53 72.28V58.73H72.26V85.83H115.36C109.6 104.15 92.49 117.45 72.26 117.45C47.32 117.45 27.09 97.23 27.09 72.28C27.09 47.33 47.31 27.11 72.26 27.11L72.27 27.1Z" fill="black"/>
</g>
<g style="mix-blend-mode:multiply">
<path d="M232.65 27.25L273.18 27.07V0L232.65 0.18C192.79 0.18 160.47 32.49 160.47 72.36C160.47 112.23 192.78 144.54 232.65 144.54H273.18V117.47H232.65C207.74 117.47 187.54 97.27 187.54 72.36C187.54 47.45 207.74 27.25 232.65 27.25V27.25Z" fill="black"/>
</g>
<g style="mix-blend-mode:multiply">
<path d="M361.26 0C321.35 0 288.99 32.35 288.99 72.27C288.99 112.19 321.34 144.54 361.26 144.54C401.18 144.54 433.53 112.19 433.53 72.27C433.53 32.35 401.17 0 361.26 0ZM361.26 117.43C336.32 117.43 316.09 97.21 316.09 72.26C316.09 47.31 336.31 27.09 361.26 27.09C386.21 27.09 406.43 47.31 406.43 72.26C406.43 97.21 386.21 117.43 361.26 117.43Z" fill="black"/>
</g>
<g style="mix-blend-mode:multiply">
<path d="M520.31 0C480.4 0 448.04 32.35 448.04 72.27C448.04 112.19 480.39 144.54 520.31 144.54C560.23 144.54 592.58 112.19 592.58 72.27C592.58 32.35 560.22 0 520.31 0ZM520.31 117.43C495.37 117.43 475.14 97.21 475.14 72.26C475.14 47.31 495.36 27.09 520.31 27.09C545.26 27.09 565.48 47.31 565.48 72.26C565.48 97.21 545.26 117.43 520.31 117.43Z" fill="black"/>
</g>
</g>
<path d="M784.564 123.656H717.357V86.6201H770.111V75.2383H744.999V22.4844H770.473V10.7412H650.512V22.4844H675.985V75.2383H650.873V86.6201H703.446V123.656H637.504V135.761H784.564V123.656ZM690.077 75.2383V22.4844H731.088V75.2383H690.077Z" fill="black"/>
<path d="M877.426 18.6904V6.40527H862.611V18.6904C862.521 46.332 831.356 70.6313 803.534 75.9609L810.038 87.8848C834.337 82.1938 859.721 65.0308 870.199 41.4541C880.587 65.0308 906.061 82.2842 930.36 87.8848L936.864 75.9609C908.952 70.7217 877.516 46.2417 877.426 18.6904ZM797.392 133.773H944.452V122.03H797.392V133.773Z" fill="black"/>
<path d="M1087.36 81.9229H990.702V56.0879H1082.12V44.7061H990.702V20.8584H1085.55V8.93457H976.249V93.4854H1087.36V81.9229ZM957.279 134.677H1104.34V122.934H957.279V134.677Z" fill="black"/>
<defs>
<clipPath id="clip0_137_24">
<rect width="592.57" height="144.53" fill="white"/>
</clipPath>
</defs>
</svg>
