<svg width="114" height="15" viewBox="0 0 114 15" fill="none" xmlns="http://www.w3.org/2000/svg">
<g clip-path="url(#clip0_137_24)">
<g style="mix-blend-mode:multiply">
<path d="M7.46037 2.81257H14.9207V0H7.46037C3.33946 0 0 3.35743 0 7.50052C0 11.6436 3.33946 15.001 7.46037 15.001C11.0651 15.001 14.0732 12.4303 14.769 9.01266C14.7762 8.97738 14.7824 8.94209 14.7886 8.90784C14.8743 8.4543 14.9197 7.97897 14.9197 7.50156V6.09527H7.45933V8.90784H11.9085C11.3139 10.8092 9.54766 12.1895 7.45933 12.1895C4.8848 12.1895 2.79648 10.091 2.79648 7.50156C2.79648 4.91213 4.88377 2.8136 7.45933 2.8136L7.46037 2.81257Z" fill="white"/>
</g>
<g style="mix-blend-mode:multiply">
<path d="M24.0163 2.82813L28.2001 2.80945V0L24.0163 0.0186812C19.9015 0.0186812 16.5652 3.37196 16.5652 7.50986C16.5652 11.6478 19.9005 15.001 24.0163 15.001H28.2001V12.1916H24.0163C21.4448 12.1916 19.3596 10.0951 19.3596 7.50986C19.3596 4.92458 21.4448 2.82813 24.0163 2.82813V2.82813Z" fill="white"/>
</g>
<g style="mix-blend-mode:multiply">
<path d="M37.2925 0C33.1726 0 29.8322 3.35743 29.8322 7.50052C29.8322 11.6436 33.1716 15.001 37.2925 15.001C41.4134 15.001 44.7529 11.6436 44.7529 7.50052C44.7529 3.35743 41.4124 0 37.2925 0ZM37.2925 12.1874C34.718 12.1874 32.6297 10.0889 32.6297 7.49948C32.6297 4.91005 34.717 2.81153 37.2925 2.81153C39.8681 2.81153 41.9554 4.91005 41.9554 7.49948C41.9554 10.0889 39.8681 12.1874 37.2925 12.1874Z" fill="white"/>
</g>
<g style="mix-blend-mode:multiply">
<path d="M53.7111 0C49.5912 0 46.2507 3.35743 46.2507 7.50052C46.2507 11.6436 49.5902 15.001 53.7111 15.001C57.832 15.001 61.1715 11.6436 61.1715 7.50052C61.1715 3.35743 57.831 0 53.7111 0ZM53.7111 12.1874C51.1366 12.1874 49.0482 10.0889 49.0482 7.49948C49.0482 4.91005 51.1355 2.81153 53.7111 2.81153C56.2867 2.81153 58.374 4.91005 58.374 7.49948C58.374 10.0889 56.2867 12.1874 53.7111 12.1874Z" fill="white"/>
</g>
</g>
<path d="M80.9898 12.8334H74.052V8.98962H79.4978V7.80836H76.9055V2.33332H79.5351V1.11455H67.1516V2.33332H69.7812V7.80836H67.1889V8.98962H72.616V12.8334H65.8088V14.0897H80.9898V12.8334ZM71.2359 7.80836V2.33332H75.4694V7.80836H71.2359Z" fill="white"/>
<path d="M90.5758 1.93956V0.664551H89.0465V1.93956C89.0371 4.80834 85.8201 7.33023 82.948 7.88336L83.6194 9.12087C86.1278 8.53024 88.7481 6.74898 89.8298 4.30208C90.9021 6.74898 93.5317 8.53962 96.0401 9.12087L96.7115 7.88336C93.8301 7.33961 90.5851 4.79896 90.5758 1.93956ZM82.3139 13.8834H97.4948V12.6647H82.3139V13.8834Z" fill="white"/>
<path d="M112.247 8.50212H102.269V5.82085H111.706V4.63959H102.269V2.16456H112.06V0.927053H100.777V9.70213H112.247V8.50212ZM98.819 13.9772H114V12.7584H98.819V13.9772Z" fill="white"/>
<defs>
<clipPath id="clip0_137_24">
<rect width="61.1705" height="15" fill="white"/>
</clipPath>
</defs>
</svg>
